<?xml version="1.0" standalone="no"?>
<!DOCTYPE svg PUBLIC "-//W3C//DTD SVG 20010904//EN"
 "http://www.w3.org/TR/2001/REC-SVG-20010904/DTD/svg10.dtd">
<svg version="1.0" xmlns="http://www.w3.org/2000/svg"
 width="300.000000pt" height="121.000000pt" viewBox="0 0 300.000000 121.000000"
 preserveAspectRatio="xMidYMid meet">
<metadata>
Created by potrace 1.10, written by Peter Selinger 2001-2011
</metadata>
<g transform="translate(0.000000,121.000000) scale(0.100000,-0.100000)"
fill="#000000" stroke="none">
<path d="M530 998 c-55 -29 -76 -69 -90 -172 -14 -94 0 -231 28 -285 36 -70
119 -93 270 -75 49 6 52 8 52 36 0 26 -2 28 -27 21 -16 -4 -63 -7 -105 -7
-132 -1 -157 35 -157 224 0 189 26 225 157 224 42 0 89 -3 105 -7 25 -7 27 -5
27 21 0 27 -3 30 -46 36 -95 13 -168 7 -214 -16z"/>
<path d="M890 743 l0 -273 30 0 30 0 0 105 0 105 76 0 75 0 50 -104 c47 -99
51 -104 84 -108 19 -2 35 -3 35 -2 0 2 -24 52 -53 113 -46 94 -51 112 -37 116
77 24 110 177 56 259 -28 44 -53 51 -204 56 l-142 5 0 -272z m286 184 c34 -40
34 -124 0 -164 -23 -27 -29 -28 -125 -31 l-101 -4 0 117 0 117 101 -4 c96 -3
102 -4 125 -31z m-244 -239 c-9 -9 -12 -7 -12 12 0 19 3 21 12 12 9 -9 9 -15
0 -24z m212 7 c-4 -8 -11 -12 -16 -9 -6 4 -5 10 3 15 19 12 19 11 13 -6z"/>
<path d="M2080 1015 c0 0 -1 -123 -3 -273 l-2 -272 33 0 33 0 -3 245 c-2 159
1 245 7 245 6 -1 57 -111 114 -245 l104 -245 59 0 58 0 0 273 0 272 -30 0 -30
0 0 -248 c0 -175 -3 -248 -11 -245 -6 2 -58 114 -116 248 l-104 245 -55 0
c-30 0 -54 0 -54 0z"/>
<path d="M1675 950 c-8 -14 3 -30 21 -30 8 0 14 9 14 20 0 21 -24 28 -35 10z"/>
<path d="M1435 880 c-8 -14 3 -30 21 -30 8 0 14 9 14 20 0 21 -24 28 -35 10z"/>
<path d="M1915 881 c-8 -15 3 -31 21 -31 9 0 14 7 12 17 -4 20 -24 28 -33 14z"/>
<path d="M1662 816 c-35 -75 -36 -76 -24 -76 5 0 17 18 27 40 10 22 22 40 26
40 5 0 18 -18 29 -40 11 -22 25 -40 30 -40 6 0 -3 26 -18 58 -16 31 -31 63
-34 71 -2 8 -18 -15 -36 -53z"/>
<path d="M1463 809 c3 -8 18 -67 34 -131 l28 -118 167 0 166 0 26 108 c14 59
29 117 32 129 5 20 -9 14 -105 -42 -62 -36 -115 -65 -118 -65 -6 0 -129 69
-202 113 -24 14 -32 16 -28 6z m94 -71 c27 -13 49 -23 51 -24 2 -1 -12 -33
-29 -70 l-33 -69 -17 70 c-10 39 -21 80 -24 93 -7 27 -7 27 52 0z m323 15 c-1
-5 -9 -45 -19 -91 -19 -94 -23 -94 -65 -2 l-25 53 47 23 c52 25 62 28 62 17z
m-224 -68 c36 -18 42 -18 76 -1 31 16 34 14 66 -50 l21 -42 -25 -5 c-54 -10
-224 -8 -224 3 0 12 48 110 54 110 2 0 17 -7 32 -15z"/>
<path d="M1500 503 l0 -23 185 0 185 0 0 23 0 22 -185 0 -185 0 0 -22z"/>
<path d="M800 330 l0 -100 65 0 c37 0 65 4 65 10 0 6 -24 10 -53 10 l-53 0 0
35 c0 35 1 35 43 35 24 0 43 5 43 10 0 6 -19 10 -43 10 -42 0 -43 0 -43 35 l0
35 53 0 c29 0 53 5 53 10 0 6 -28 10 -65 10 l-65 0 0 -100z"/>
<path d="M1108 373 c-44 -11 -45 -127 -1 -144 28 -11 76 -2 67 13 -4 5 -14 8
-24 5 -31 -8 -50 11 -50 52 0 43 19 66 49 56 10 -3 22 -2 25 3 5 8 -29 24 -44
21 -3 -1 -13 -3 -22 -6z"/>
<path d="M1233 370 c-45 -18 -45 -115 0 -140 24 -13 30 -13 55 0 23 13 27 23
30 66 2 33 -2 54 -10 61 -21 17 -51 22 -75 13z m48 -20 c27 -15 27 -85 -1
-100 -14 -8 -26 -8 -40 0 -27 14 -28 84 -2 99 21 13 20 13 43 1z"/>
<path d="M1401 371 c-8 -5 -20 -7 -28 -4 -10 4 -13 -11 -13 -66 0 -41 4 -71
10 -71 6 0 10 26 10 59 0 52 2 59 22 64 35 9 48 -10 48 -69 0 -30 5 -54 10
-54 6 0 10 26 10 59 0 52 2 59 22 64 35 9 48 -10 48 -69 0 -30 5 -54 10 -54 6
0 10 26 10 58 0 75 -22 100 -71 83 -21 -7 -37 -7 -49 -1 -22 12 -21 12 -39 1z"/>
<path d="M1641 371 c-8 -5 -20 -7 -28 -4 -10 4 -13 -11 -13 -66 0 -41 4 -71
10 -71 6 0 10 26 10 59 0 51 3 59 21 64 40 11 49 -1 49 -64 0 -33 4 -59 10
-59 6 0 10 26 10 59 0 52 2 59 22 64 35 9 48 -10 48 -69 0 -30 5 -54 10 -54 6
0 10 26 10 59 0 71 -18 96 -59 85 -30 -8 -39 -8 -66 0 -11 4 -26 2 -34 -3z"/>
<path d="M1862 364 c-18 -12 -22 -25 -22 -64 0 -42 4 -52 25 -66 26 -17 85
-12 85 8 0 6 -10 8 -25 4 -30 -8 -65 8 -65 29 0 11 13 15 51 15 51 0 51 0 45
28 -7 28 -39 62 -60 62 -6 0 -22 -7 -34 -16z m56 -16 c23 -23 13 -38 -23 -38
-22 0 -35 5 -35 13 0 16 20 37 35 37 6 0 16 -5 23 -12z"/>
<path d="M2032 364 c-13 -9 -22 -11 -22 -5 0 6 -4 11 -10 11 -6 0 -10 -30 -10
-70 0 -40 4 -70 10 -70 6 0 10 25 10 55 0 39 4 55 13 55 7 0 21 6 32 13 26 19
3 30 -23 11z"/>
<path d="M2100 360 c-45 -45 -11 -151 43 -136 12 3 25 6 30 6 4 0 7 5 7 11 0
7 -10 9 -24 5 -31 -8 -56 16 -56 54 0 38 25 62 56 54 26 -7 34 10 8 20 -27 10
-43 7 -64 -14z"/>
<path d="M2234 365 c-42 -29 -38 -112 6 -135 24 -13 80 -4 80 12 0 6 -10 8
-25 4 -30 -8 -65 8 -65 29 0 11 12 15 45 15 43 0 45 1 45 29 0 20 -8 35 -22
45 -28 20 -38 20 -64 1z m54 -17 c23 -23 13 -38 -23 -38 -22 0 -35 5 -35 13 0
16 20 37 35 37 6 0 16 -5 23 -12z"/>
<path d="M950 310 c0 -5 20 -10 45 -10 25 0 45 5 45 10 0 6 -20 10 -45 10 -25
0 -45 -4 -45 -10z"/>
</g>
</svg>
